<svg width="20" height="20" viewBox="0 0 20 20" fill="none" xmlns="http://www.w3.org/2000/svg">
<rect width="20" height="20" rx="10" fill="#F79A38"/>
<path d="M13.1188 11.3964C13.3812 11.1341 13.4187 10.7592 13.1938 10.3844C13.0064 10.0846 12.6691 9.93468 12.2943 10.0096C12.1443 10.0471 11.9944 10.1221 11.8445 10.2345C10.6826 11.0216 9.10841 10.9841 7.94651 10.197C7.87155 10.1596 7.79659 10.1221 7.72163 10.0846C7.30934 9.89719 6.89706 9.97216 6.67218 10.347C6.40981 10.7218 6.44729 11.1341 6.78461 11.4714C6.85958 11.5463 6.93454 11.5838 6.97202 11.6588L7.0095 11.6963C7.53423 12.1085 8.1714 12.3709 8.99597 12.4834L8.50872 12.9706C8.09643 13.3829 7.64667 13.8326 7.23439 14.2449C7.12194 14.3574 6.97202 14.5448 6.97202 14.8071C6.97202 15.1445 7.15942 15.4818 7.49675 15.6317C7.60919 15.7067 7.72163 15.7067 7.83407 15.7067C8.02147 15.7067 8.24636 15.6317 8.39628 15.4443C8.95849 14.8821 9.40825 14.4323 9.85802 13.9826C9.8955 13.9451 9.8955 13.9451 9.8955 13.9451C9.8955 13.9451 9.93298 13.9451 9.93298 13.9826C10.2328 14.3199 10.5701 14.6197 10.87 14.9571C11.0199 15.107 11.1698 15.2569 11.3198 15.4068C11.5072 15.5942 11.6571 15.6692 11.882 15.6692C12.2193 15.7067 12.5941 15.4818 12.744 15.1445C12.8939 14.8446 12.819 14.4698 12.5566 14.2449C12.1818 13.8701 11.807 13.4578 11.3947 13.083L10.7576 12.4459C11.0949 12.4084 11.4697 12.3334 11.807 12.1835C12.3692 11.9961 12.7815 11.7337 13.1188 11.3964Z" fill="#F8F8FC"/>
<path d="M9.8955 10.347C11.5072 10.347 12.819 9.07262 12.819 7.46096C12.819 6.67387 12.5191 5.92426 11.9569 5.36205C11.3947 4.79985 10.6826 4.5 9.93298 4.5C8.32132 4.5 7.04698 5.81182 7.0095 7.386C7.0095 8.17309 7.30934 8.88522 7.87155 9.44742C8.39628 10.0471 9.10841 10.347 9.8955 10.347ZM9.07093 6.59891C9.29581 6.37403 9.59565 6.26158 9.8955 6.26158C10.5701 6.26158 11.0574 6.78631 11.0574 7.42348C11.0574 8.09813 10.5327 8.58537 9.8955 8.58537C9.22085 8.58537 8.73361 8.06065 8.73361 7.42348C8.73361 7.12364 8.84604 6.82379 9.07093 6.59891Z" fill="#F8F8FC"/>
<path d="M13.1188 11.3964C13.3812 11.1341 13.4187 10.7592 13.1938 10.3844C13.0064 10.0846 12.6691 9.93468 12.2943 10.0096C12.1443 10.0471 11.9944 10.1221 11.8445 10.2345C10.6826 11.0216 9.10841 10.9841 7.94651 10.197C7.87155 10.1596 7.79659 10.1221 7.72163 10.0846C7.30934 9.89719 6.89706 9.97216 6.67218 10.347C6.40981 10.7218 6.44729 11.1341 6.78461 11.4714C6.85958 11.5463 6.93454 11.5838 6.97202 11.6588L7.0095 11.6963C7.53423 12.1085 8.1714 12.3709 8.99597 12.4834L8.50872 12.9706C8.09643 13.3829 7.64667 13.8326 7.23439 14.2449C7.12194 14.3574 6.97202 14.5448 6.97202 14.8071C6.97202 15.1445 7.15942 15.4818 7.49675 15.6317C7.60919 15.7067 7.72163 15.7067 7.83407 15.7067C8.02147 15.7067 8.24636 15.6317 8.39628 15.4443C8.95849 14.8821 9.40825 14.4323 9.85802 13.9826C9.8955 13.9451 9.8955 13.9451 9.8955 13.9451C9.8955 13.9451 9.93298 13.9451 9.93298 13.9826C10.2328 14.3199 10.5701 14.6197 10.87 14.9571C11.0199 15.107 11.1698 15.2569 11.3198 15.4068C11.5072 15.5942 11.6571 15.6692 11.882 15.6692C12.2193 15.7067 12.5941 15.4818 12.744 15.1445C12.8939 14.8446 12.819 14.4698 12.5566 14.2449C12.1818 13.8701 11.807 13.4578 11.3947 13.083L10.7576 12.4459C11.0949 12.4084 11.4697 12.3334 11.807 12.1835C12.3692 11.9961 12.7815 11.7337 13.1188 11.3964Z" fill="#F8F8FC"/>
</svg>
