<svg width="22" height="22" viewBox="0 0 22 22" fill="none" xmlns="http://www.w3.org/2000/svg">
<path d="M20.2137 8.73524L20.2137 8.73524C20.4963 8.81934 20.6699 8.91954 20.7552 9.03909L21.1414 8.76344L20.7552 9.0391C20.8638 9.19118 20.8704 9.49213 20.6953 9.76408L20.6953 9.7641C20.5197 10.0368 20.2206 10.2485 19.8327 10.4656C19.409 10.7026 19.104 10.8358 18.8074 10.9654C18.7116 11.0072 18.6167 11.0487 18.5189 11.0932C18.1101 11.279 17.7105 11.4939 17.1405 11.9429L17.4499 12.3357L17.1405 11.9429C16.4909 12.4547 16.0397 12.9849 15.8822 13.6388C15.725 14.2911 15.8862 14.9597 16.2067 15.6853C16.3053 15.9086 16.3998 16.1129 16.4904 16.3088C16.9234 17.2452 17.2682 17.9906 17.5542 19.7069C17.5966 19.9613 17.5506 20.1024 17.5021 20.1809C17.4519 20.2623 17.3614 20.3367 17.2094 20.3878C16.8851 20.4968 16.4051 20.4528 16.0327 20.2754C15.553 20.0469 15.125 19.7327 14.6661 19.3804C14.6203 19.3453 14.5742 19.3097 14.5276 19.2738C14.1187 18.9585 13.6768 18.6179 13.1854 18.3402C12.4569 17.9284 11.5957 17.6302 10.6957 17.6703C9.391 17.7285 8.45039 18.5685 7.67307 19.2627C7.66029 19.2742 7.64756 19.2855 7.63487 19.2969C6.79286 20.0485 6.12785 20.6204 5.26018 20.6494C4.74965 20.6664 4.50497 20.4556 4.39621 20.199C4.27005 19.9014 4.27909 19.4222 4.55398 18.8725C4.57039 18.8396 4.58694 18.8066 4.60364 18.7732C5.20539 17.5705 5.98737 16.0076 6.18599 14.5609C6.34933 13.3711 5.49888 12.5702 4.85428 12.0624C4.08251 11.4545 3.61245 11.2171 3.02775 10.9218C2.77214 10.7927 2.49462 10.6526 2.16041 10.4656C1.77249 10.2485 1.47343 10.0368 1.29783 9.76412L1.29781 9.7641C1.12267 9.49213 1.12933 9.19117 1.23789 9.0391L0.83094 8.74859L1.23789 9.03909C1.32323 8.91955 1.49684 8.81935 1.77944 8.73524C2.14145 8.62748 2.57273 8.58265 3.06587 8.56441C3.3104 8.55536 3.56246 8.553 3.82358 8.55113C3.8454 8.55097 3.86728 8.55082 3.88923 8.55067C4.12764 8.54901 4.37336 8.5473 4.61734 8.54049C5.65387 8.51157 6.83221 8.39414 7.67075 7.62606C8.0232 7.30323 8.31707 6.85041 8.5494 6.41775C8.78561 5.97786 8.97721 5.52245 9.11411 5.16652C9.31104 4.6545 9.48231 4.17265 9.63594 3.74043C9.7161 3.5149 9.79146 3.30288 9.86316 3.10714C10.0744 2.53035 10.2567 2.08684 10.4576 1.75084L10.4611 1.74627C10.4724 1.7321 10.4899 1.71084 10.5125 1.68501C10.5585 1.63265 10.6207 1.56712 10.6911 1.50548C10.7633 1.4422 10.8314 1.39406 10.8886 1.36548C10.9241 1.34775 10.9434 1.34344 10.949 1.3424L10.9966 1.34765L11.0441 1.3424C11.0497 1.34345 11.069 1.34779 11.1043 1.36545C11.1614 1.39402 11.2295 1.44217 11.3017 1.50549C11.3721 1.56717 11.4344 1.63277 11.4805 1.68528C11.5032 1.71116 11.5209 1.73258 11.5324 1.747C11.5339 1.7489 11.5352 1.75059 11.5364 1.7521C11.5629 1.79864 11.6074 1.8992 11.6743 2.08519C11.7344 2.25249 11.8021 2.4577 11.8839 2.70564C11.8967 2.74443 11.9098 2.78426 11.9233 2.82516C12.1211 3.42393 12.3863 4.21409 12.7654 5.13717L13.2279 4.9472L12.7654 5.13717C13.0404 5.80672 13.4065 6.68744 14.0834 7.30742C14.9071 8.06195 16.1265 8.2708 17.2211 8.37894C17.5027 8.40677 17.7856 8.42841 18.0602 8.44894C18.0856 8.45083 18.1108 8.45271 18.136 8.45459C18.3856 8.47321 18.6275 8.49124 18.8626 8.51287C19.3842 8.56085 19.84 8.62401 20.2137 8.73524ZM10.4508 1.75955C10.4481 1.76329 10.4476 1.76382 10.4506 1.75973L10.4508 1.75955Z" stroke="#FAB85A"/>
</svg>
