<svg width="24" height="24" viewBox="0 0 24 24" fill="none" xmlns="http://www.w3.org/2000/svg">
<path fill-rule="evenodd" clip-rule="evenodd" d="M10.5872 1.94255C10.5861 1.94283 10.5849 1.94311 10.5838 1.9434C10.1434 1.95651 9.73899 2.66664 9.72545 2.69812C9.48641 3.25395 9.33532 3.9924 9.1474 4.91078C9.05634 5.35584 8.95663 5.84316 8.83407 6.37243C8.6672 7.0931 8.35056 8.19471 7.84843 8.80359C7.11827 9.689 5.81408 9.88158 4.54437 10.0691C3.74823 10.1866 2.96565 10.3022 2.34662 10.5853C2.05487 10.7187 1.76539 10.9007 1.61716 11.1852C1.4066 11.5893 1.54458 12.1074 1.84221 12.4525C2.13981 12.7975 2.56669 13.0015 2.9916 13.1665C3.38627 13.3199 3.69557 13.4249 3.97114 13.5185C4.56777 13.7212 5.00627 13.8701 5.81081 14.3389C6.52152 14.753 7.22615 15.2996 7.22901 16.1973C7.2334 17.5734 6.69929 19.1631 6.26262 20.4628C6.2547 20.4864 6.24681 20.5098 6.23896 20.5332C5.78526 21.8841 6.38687 23.0836 7.7456 22.8463C8.80438 22.6613 9.49498 21.8453 10.1926 21.0211C10.8982 20.1874 11.611 19.3452 12.7192 19.1388C12.8119 19.1215 12.905 19.1085 12.9984 19.0995L10.5872 1.94255Z" fill="#FAB85A"/>
<path d="M12.9985 19.0996L12.5033 19.1692L12.57 19.6431L13.0464 19.5973L12.9985 19.0996ZM15.0033 19.4294L15.1863 18.9641L15.1863 18.9641L15.0033 19.4294ZM16.3996 20.1373L16.1525 20.572L16.1525 20.572L16.3996 20.1373ZM18.1251 20.9612L18.2752 20.4843L18.2752 20.4842L18.1251 20.9612ZM20.1798 19.5595L19.7028 19.7095L19.7028 19.7095L20.1798 19.5595ZM18.594 16.2172L18.1738 16.4883L18.1738 16.4883L18.594 16.2172ZM18.2335 15.6509L17.8087 15.9146L17.8087 15.9146L18.2335 15.6509ZM18.5737 12.4246L18.2126 12.0787L18.2126 12.0787L18.5737 12.4246ZM19.9789 11.311L19.7171 10.8851L19.7171 10.8851L19.9789 11.311ZM20.9755 10.6391L21.278 11.0372L21.278 11.0372L20.9755 10.6391ZM21.8835 9.63589L21.4296 9.42631L21.4296 9.42634L21.8835 9.63589ZM21.7506 8.35573L21.388 8.70004L21.388 8.70005L21.7506 8.35573ZM20.884 7.9801L20.8095 8.47451L20.8095 8.47452L20.884 7.9801ZM18.6808 7.98679L18.7134 8.48573L18.6808 7.98679ZM14.8232 7.50165L15.1063 7.08953L15.1063 7.08953L14.8232 7.50165ZM13.3645 5.69557L12.9329 5.94806L12.9329 5.94806L13.3645 5.69557ZM12.1702 3.44219L11.7218 3.66334L11.7218 3.66334L12.1702 3.44219ZM11.617 2.43234L11.2359 2.75602L11.2359 2.75604L11.617 2.43234ZM10.5872 1.94262L10.4678 1.4571L10.0292 1.56499L10.0921 2.0122L10.5872 1.94262ZM13.0464 19.5973C13.623 19.5418 14.2338 19.664 14.8202 19.8947L15.1863 18.9641C14.5009 18.6945 13.7282 18.527 12.9506 18.6019L13.0464 19.5973ZM14.8202 19.8947C15.2717 20.0723 15.6946 20.3117 16.1525 20.572L16.6466 19.7026C16.1988 19.448 15.7149 19.1721 15.1863 18.9641L14.8202 19.8947ZM16.1525 20.572C16.699 20.8826 17.2975 21.2249 17.975 21.4381L18.2752 20.4842C17.7156 20.3081 17.2078 20.0216 16.6466 19.7026L16.1525 20.572ZM17.975 21.4381C18.5666 21.6243 19.3231 21.6165 19.9036 21.3261C20.2034 21.1761 20.4794 20.9375 20.6328 20.5882C20.7876 20.2358 20.79 19.8332 20.6567 19.4094L19.7028 19.7095C19.7802 19.9555 19.7543 20.1017 19.7172 20.1862C19.6788 20.2737 19.5995 20.36 19.4561 20.4318C19.1502 20.5848 18.6687 20.6081 18.2752 20.4843L17.975 21.4381ZM20.6567 19.4094C20.0951 17.6241 19.5922 16.8421 19.0141 15.9461L18.1738 16.4883C18.7268 17.3454 19.1785 18.0429 19.7028 19.7095L20.6567 19.4094ZM19.0141 15.9461C18.8979 15.766 18.7805 15.584 18.6583 15.3873L17.8087 15.9146C17.9361 16.1199 18.0581 16.3089 18.1738 16.4883L19.0141 15.9461ZM18.6584 15.3873C18.2827 14.782 18.1646 14.373 18.1979 14.0298C18.231 13.6881 18.4251 13.3024 18.9347 12.7705L18.2126 12.0787C17.6406 12.6759 17.2676 13.2637 17.2026 13.9331C17.1377 14.601 17.3904 15.2406 17.8087 15.9146L18.6584 15.3873ZM18.9347 12.7705C19.4738 12.2078 19.8052 12.0048 20.2408 11.7369L19.7171 10.8851C19.2503 11.1721 18.837 11.427 18.2126 12.0787L18.9347 12.7705ZM20.2408 11.7369C20.5227 11.5636 20.8495 11.3628 21.278 11.0372L20.673 10.241C20.2856 10.5353 19.9937 10.715 19.7171 10.8851L20.2408 11.7369ZM21.278 11.0372C21.65 10.7546 22.0915 10.3784 22.3375 9.84545L21.4296 9.42634C21.2936 9.72086 21.0269 9.97209 20.673 10.241L21.278 11.0372ZM22.3375 9.84548C22.5839 9.31175 22.612 8.53676 22.1131 8.01142L21.388 8.70005C21.5167 8.83554 21.5652 9.13263 21.4296 9.42631L22.3375 9.84548ZM22.1131 8.01142C21.7725 7.65271 21.3015 7.53739 20.9586 7.48569L20.8095 8.47452C21.101 8.51847 21.2869 8.59353 21.388 8.70004L22.1131 8.01142ZM20.9586 7.48569C20.2593 7.38024 19.4291 7.43687 18.6483 7.48785L18.7134 8.48573C19.5282 8.43253 20.2392 8.38852 20.8095 8.47451L20.9586 7.48569ZM18.6483 7.48785C17.9421 7.53396 17.2583 7.57774 16.6317 7.53214C16.005 7.48654 15.4916 7.35422 15.1063 7.08953L14.5401 7.91377C15.1345 8.32212 15.8513 8.47799 16.5591 8.52951C17.2671 8.58103 18.0222 8.53085 18.7134 8.48573L18.6483 7.48785ZM15.1063 7.08953C14.5619 6.71549 14.1776 6.09533 13.7961 5.44309L12.9329 5.94806C13.2984 6.57282 13.7835 7.39402 14.5401 7.91377L15.1063 7.08953ZM13.7961 5.44309C13.2775 4.55676 12.9024 3.7964 12.6187 3.22103L11.7218 3.66334C12.0063 4.24029 12.3949 5.02845 12.9329 5.94806L13.7961 5.44309ZM12.6187 3.22103C12.4959 2.97215 12.3865 2.75021 12.2911 2.57133C12.2003 2.40124 12.1023 2.23127 11.9981 2.10865L11.2359 2.75604C11.2634 2.78832 11.3179 2.87179 11.4088 3.04216C11.4951 3.20374 11.5965 3.40928 11.7218 3.66334L12.6187 3.22103ZM11.9981 2.10867C11.9508 2.05294 11.7619 1.8739 11.5284 1.72047C11.407 1.64075 11.2545 1.555 11.0857 1.4977C10.9198 1.44142 10.7004 1.39986 10.4678 1.4571L10.7067 2.42814C10.6874 2.43289 10.7006 2.42305 10.7643 2.44468C10.8251 2.4653 10.8992 2.50365 10.9793 2.55622C11.0572 2.60745 11.1278 2.66355 11.1805 2.70894C11.2065 2.73131 11.2268 2.74997 11.2401 2.76259C11.2625 2.78376 11.2537 2.777 11.2359 2.75602L11.9981 2.10867ZM10.0921 2.0122L12.5033 19.1692L13.4936 19.03L11.0824 1.87303L10.0921 2.0122Z" fill="#FAB85A"/>
</svg>
