<svg width="22" height="22" viewBox="0 0 22 22" fill="none" xmlns="http://www.w3.org/2000/svg">
<path d="M20.8128 7.52654C20.596 7.29011 20.2692 7.1892 19.9529 7.13584C18.2112 6.84202 15.4217 7.6357 13.9014 6.55169C13.2588 6.09351 12.8367 5.36535 12.4744 4.72043C11.5146 3.01222 11.0606 1.76442 10.7841 1.4272C10.7624 1.40069 10.1884 0.81903 9.75967 0.920355C9.31913 0.925778 8.90235 1.62875 8.88826 1.65998C8.51903 2.47886 8.33658 3.70356 7.93289 5.31818C7.75346 6.03583 7.41765 7.13174 6.90497 7.73177C5.69201 9.15139 2.99175 8.71073 1.3729 9.41718C1.07886 9.54549 0.786248 9.72243 0.633077 10.0043C0.415502 10.4047 0.54442 10.9251 0.835977 11.2753C1.12751 11.6255 1.55077 11.8368 1.97273 12.0093C3.21326 12.5163 3.60706 12.5249 4.77105 13.2306C5.47443 13.6571 6.16941 14.2159 6.1566 15.1135C6.13662 16.5144 5.55464 18.127 5.09103 19.4315C4.61382 20.7743 5.1944 21.9841 6.55707 21.7705C8.69288 21.4357 9.38391 18.5223 11.5946 18.1504C12.3614 18.0214 13.1546 18.1835 13.8732 18.4808C14.955 18.9283 15.8499 19.6933 16.9679 20.0668C17.9473 20.394 19.4446 20.0478 19.0467 18.7012C18.4287 16.61 17.8812 15.9527 17.1689 14.7593C16.3973 13.4663 16.4641 12.6494 17.5654 11.5393C18.5241 10.5729 18.9169 10.5881 19.998 9.79606C20.3657 9.52665 20.7252 9.21915 20.9234 8.80883C21.1216 8.39852 21.1207 7.86238 20.8128 7.52654Z" fill="#FAB85A"/>
</svg>
