<svg width="19" height="24" viewBox="0 0 19 24" fill="none" xmlns="http://www.w3.org/2000/svg">
<path fill-rule="evenodd" clip-rule="evenodd" d="M13.4573 4.49239C14.2597 4.61753 15.004 5.00017 15.5745 5.58805C17.0045 7.06147 16.987 9.40995 15.5351 10.8618L15.238 11.1589L11.801 14.5959L7.96037 18.4365C6.58251 19.8143 4.34636 19.8071 2.97747 18.4203C1.61733 17.0425 1.62883 14.8237 3.00318 13.46L8.63487 7.87188C9.17257 7.33834 10.0405 7.34001 10.5761 7.87562C11.1132 8.41273 11.1133 9.28359 10.5761 9.82071L4.66907 15.7278L5.72973 16.7884L11.6368 10.8814C12.7597 9.75845 12.7597 7.93782 11.6367 6.81493C10.5169 5.69517 8.70247 5.69168 7.57834 6.80711L1.94665 12.3952C-0.0146788 14.3414 -0.0310911 17.5077 1.90996 19.4741C3.86349 21.4531 7.0547 21.4635 9.02103 19.4972L12.8617 15.6565L16.2987 12.2196L16.5958 11.9225C18.6272 9.89101 18.6518 6.60499 16.6509 4.54337C15.7981 3.66461 14.6678 3.1136 13.4573 2.97949V4.49239Z" fill="#0B1F33"/>
</svg>
